<?xml version="1.0" encoding="utf-8"?>
<!-- Generator: Adobe Illustrator 17.0.0, SVG Export Plug-In . SVG Version: 6.00 Build 0)  -->
<!DOCTYPE svg PUBLIC "-//W3C//DTD SVG 1.1//EN" "http://www.w3.org/Graphics/SVG/1.1/DTD/svg11.dtd">
<svg version="1.1" id="Capa_1" xmlns="http://www.w3.org/2000/svg" xmlns:xlink="http://www.w3.org/1999/xlink" x="0px" y="0px"
	 width="352.394px" height="280.486px" viewBox="0 0 352.394 280.486" enable-background="new 0 0 352.394 280.486"
	 xml:space="preserve">
<g>
	<g>
		<path fill="#010002" d="M67.852,244.42v-12.728h2.718v10.565h6.758v2.162H67.852z"/>
		<path fill="#010002" d="M79.147,238.082c0-1.307,0.205-2.404,0.615-3.292c0.306-0.653,0.724-1.24,1.253-1.759
			c0.529-0.52,1.109-0.904,1.74-1.155c0.839-0.338,1.806-0.508,2.902-0.508c1.983,0,3.57,0.586,4.761,1.759
			c1.19,1.173,1.786,2.804,1.786,4.893c0,2.072-0.591,3.693-1.772,4.863s-2.761,1.755-4.738,1.755c-2.001,0-3.593-0.582-4.775-1.746
			C79.737,241.728,79.147,240.125,79.147,238.082z M81.947,237.995c0,1.453,0.352,2.554,1.056,3.304s1.598,1.125,2.681,1.125
			c1.084,0,1.973-0.372,2.668-1.116c0.694-0.744,1.042-1.86,1.042-3.348c0-1.471-0.338-2.568-1.015-3.292s-1.575-1.085-2.695-1.085
			c-1.12,0-2.023,0.366-2.708,1.099C82.29,235.414,81.947,236.518,81.947,237.995z"/>
		<path fill="#010002" d="M101.021,239.702v-2.162h5.858v5.112c-0.569,0.525-1.395,0.988-2.475,1.387
			c-1.081,0.4-2.175,0.6-3.283,0.6c-1.408,0-2.636-0.281-3.683-0.845c-1.046-0.563-1.833-1.368-2.36-2.416
			c-0.526-1.047-0.79-2.187-0.79-3.418c0-1.336,0.294-2.524,0.881-3.562c0.588-1.039,1.448-1.835,2.581-2.39
			c0.863-0.426,1.938-0.639,3.223-0.639c1.671,0,2.977,0.334,3.916,1.002c0.94,0.668,1.544,1.592,1.813,2.771l-2.699,0.481
			c-0.19-0.63-0.546-1.127-1.07-1.492s-1.177-0.547-1.96-0.547c-1.188,0-2.132,0.359-2.833,1.077
			c-0.701,0.718-1.051,1.783-1.051,3.195c0,1.523,0.355,2.666,1.065,3.427c0.71,0.762,1.641,1.143,2.792,1.143
			c0.569,0,1.14-0.106,1.712-0.32c0.573-0.213,1.064-0.471,1.474-0.774v-1.628H101.021z"/>
		<path fill="#010002" d="M109.736,244.42v-12.833h2.718v12.833H109.736z"/>
		<path fill="#010002" d="M114.787,240.245l2.645-0.245c0.159,0.846,0.482,1.468,0.969,1.864c0.486,0.397,1.143,0.595,1.97,0.595
			c0.875,0,1.535-0.176,1.979-0.529s0.666-0.766,0.666-1.239c0-0.303-0.094-0.562-0.28-0.774c-0.187-0.213-0.513-0.398-0.978-0.556
			c-0.318-0.105-1.043-0.292-2.176-0.56c-1.457-0.344-2.479-0.768-3.067-1.27c-0.826-0.706-1.24-1.567-1.24-2.582
			c0-0.653,0.194-1.265,0.583-1.834c0.389-0.569,0.949-1.002,1.68-1.3c0.731-0.297,1.615-0.446,2.649-0.446
			c1.69,0,2.961,0.353,3.815,1.059s1.302,1.648,1.345,2.827l-2.718,0.114c-0.116-0.659-0.366-1.133-0.749-1.422
			c-0.383-0.289-0.957-0.433-1.722-0.433c-0.79,0-1.408,0.155-1.855,0.464c-0.288,0.198-0.432,0.464-0.432,0.796
			c0,0.304,0.135,0.563,0.404,0.779c0.343,0.274,1.175,0.56,2.498,0.858c1.322,0.297,2.3,0.605,2.934,0.923
			c0.634,0.318,1.13,0.753,1.488,1.304c0.358,0.552,0.537,1.233,0.537,2.044c0,0.735-0.214,1.424-0.643,2.066
			c-0.429,0.642-1.035,1.119-1.818,1.431s-1.76,0.468-2.929,0.468c-1.702,0-3.009-0.375-3.921-1.125
			C115.509,242.773,114.965,241.68,114.787,240.245z"/>
		<path fill="#010002" d="M131.482,244.42v-10.662h-3.995v-2.171h10.698v2.171H134.2v10.662H131.482z"/>
		<path fill="#010002" d="M140.289,244.42v-12.833h2.718v12.833H140.289z"/>
		<path fill="#010002" d="M154.642,239.702l2.635,0.797c-0.404,1.4-1.076,2.441-2.016,3.121c-0.939,0.68-2.132,1.02-3.577,1.02
			c-1.788,0-3.256-0.582-4.407-1.746c-1.151-1.165-1.727-2.756-1.727-4.775c0-2.136,0.579-3.795,1.735-4.977
			c1.157-1.182,2.678-1.772,4.564-1.772c1.646,0,2.984,0.464,4.013,1.392c0.612,0.549,1.071,1.336,1.377,2.363l-2.69,0.613
			c-0.159-0.665-0.491-1.19-0.997-1.575c-0.505-0.385-1.119-0.578-1.841-0.578c-0.998,0-1.808,0.341-2.429,1.024
			c-0.622,0.683-0.932,1.789-0.932,3.317c0,1.623,0.306,2.778,0.918,3.466c0.612,0.689,1.408,1.033,2.387,1.033
			c0.722,0,1.344-0.219,1.864-0.657C154.042,241.33,154.416,240.641,154.642,239.702z"/>
		<path fill="#010002" d="M159.354,240.245l2.645-0.245c0.159,0.846,0.482,1.468,0.969,1.864c0.486,0.397,1.143,0.595,1.97,0.595
			c0.875,0,1.535-0.176,1.979-0.529s0.666-0.766,0.666-1.239c0-0.303-0.094-0.562-0.28-0.774c-0.187-0.213-0.513-0.398-0.978-0.556
			c-0.318-0.105-1.043-0.292-2.176-0.56c-1.457-0.344-2.479-0.768-3.067-1.27c-0.826-0.706-1.24-1.567-1.24-2.582
			c0-0.653,0.194-1.265,0.583-1.834c0.389-0.569,0.949-1.002,1.68-1.3c0.731-0.297,1.615-0.446,2.649-0.446
			c1.69,0,2.961,0.353,3.815,1.059s1.302,1.648,1.345,2.827l-2.718,0.114c-0.116-0.659-0.366-1.133-0.749-1.422
			c-0.383-0.289-0.957-0.433-1.722-0.433c-0.79,0-1.408,0.155-1.855,0.464c-0.288,0.198-0.432,0.464-0.432,0.796
			c0,0.304,0.135,0.563,0.404,0.779c0.343,0.274,1.175,0.56,2.498,0.858c1.322,0.297,2.3,0.605,2.934,0.923
			c0.634,0.318,1.13,0.753,1.488,1.304c0.358,0.552,0.537,1.233,0.537,2.044c0,0.735-0.214,1.424-0.643,2.066
			c-0.429,0.642-1.035,1.119-1.818,1.431s-1.76,0.468-2.929,0.468c-1.702,0-3.009-0.375-3.921-1.125
			C160.076,242.773,159.531,241.68,159.354,240.245z"/>
		<path fill="#010002" d="M177.987,240.245l2.645-0.245c0.159,0.846,0.482,1.468,0.969,1.864c0.486,0.397,1.143,0.595,1.97,0.595
			c0.875,0,1.535-0.176,1.979-0.529s0.666-0.766,0.666-1.239c0-0.303-0.094-0.562-0.28-0.774c-0.187-0.213-0.513-0.398-0.978-0.556
			c-0.318-0.105-1.043-0.292-2.176-0.56c-1.457-0.344-2.479-0.768-3.067-1.27c-0.826-0.706-1.24-1.567-1.24-2.582
			c0-0.653,0.194-1.265,0.583-1.834c0.389-0.569,0.949-1.002,1.68-1.3c0.731-0.297,1.615-0.446,2.649-0.446
			c1.69,0,2.961,0.353,3.815,1.059s1.302,1.648,1.345,2.827l-2.718,0.114c-0.116-0.659-0.366-1.133-0.749-1.422
			c-0.383-0.289-0.957-0.433-1.722-0.433c-0.79,0-1.408,0.155-1.855,0.464c-0.288,0.198-0.432,0.464-0.432,0.796
			c0,0.304,0.135,0.563,0.404,0.779c0.343,0.274,1.175,0.56,2.498,0.858c1.322,0.297,2.3,0.605,2.934,0.923
			c0.634,0.318,1.13,0.753,1.488,1.304c0.358,0.552,0.537,1.233,0.537,2.044c0,0.735-0.214,1.424-0.643,2.066
			c-0.429,0.642-1.035,1.119-1.818,1.431s-1.76,0.468-2.929,0.468c-1.702,0-3.009-0.375-3.921-1.125
			C178.71,242.773,178.165,241.68,177.987,240.245z"/>
		<path fill="#010002" d="M191.652,244.42v-12.833h9.981v2.171h-7.263v2.845h6.758v2.162h-6.758v3.493h7.521v2.162H191.652z"/>
		<path fill="#010002" d="M213.241,239.702l2.635,0.797c-0.404,1.4-1.076,2.441-2.016,3.121c-0.939,0.68-2.132,1.02-3.577,1.02
			c-1.788,0-3.256-0.582-4.407-1.746c-1.151-1.165-1.727-2.756-1.727-4.775c0-2.136,0.579-3.795,1.735-4.977
			c1.157-1.182,2.678-1.772,4.564-1.772c1.646,0,2.984,0.464,4.013,1.392c0.612,0.549,1.071,1.336,1.377,2.363l-2.69,0.613
			c-0.159-0.665-0.491-1.19-0.997-1.575c-0.505-0.385-1.119-0.578-1.841-0.578c-0.998,0-1.808,0.341-2.429,1.024
			c-0.622,0.683-0.932,1.789-0.932,3.317c0,1.623,0.306,2.778,0.918,3.466c0.612,0.689,1.408,1.033,2.387,1.033
			c0.722,0,1.344-0.219,1.864-0.657C212.641,241.33,213.014,240.641,213.241,239.702z"/>
		<path fill="#010002" d="M218.622,231.587h2.718v6.95c0,1.103,0.034,1.818,0.101,2.145c0.116,0.525,0.393,0.947,0.831,1.265
			c0.438,0.318,1.036,0.477,1.795,0.477c0.771,0,1.353-0.15,1.745-0.451c0.392-0.3,0.627-0.669,0.707-1.107
			c0.08-0.438,0.12-1.165,0.12-2.18v-7.099h2.718v6.74c0,1.541-0.073,2.629-0.22,3.265c-0.147,0.636-0.418,1.173-0.812,1.61
			c-0.395,0.438-0.923,0.787-1.584,1.046c-0.661,0.26-1.524,0.39-2.589,0.39c-1.286,0-2.261-0.142-2.925-0.424
			c-0.665-0.283-1.189-0.651-1.575-1.103s-0.64-0.926-0.762-1.422c-0.178-0.735-0.267-1.821-0.267-3.256V231.587z"/>
		<path fill="#010002" d="M232.664,244.42v-12.833h5.721c1.438,0,2.484,0.115,3.136,0.346s1.174,0.641,1.565,1.23
			c0.392,0.589,0.588,1.263,0.588,2.022c0,0.963-0.297,1.758-0.891,2.385c-0.594,0.627-1.481,1.023-2.663,1.186
			c0.588,0.327,1.073,0.686,1.456,1.077c0.382,0.391,0.898,1.085,1.547,2.083l1.644,2.503h-3.25l-1.965-2.792
			c-0.698-0.998-1.175-1.626-1.432-1.886c-0.257-0.26-0.53-0.438-0.817-0.534c-0.288-0.096-0.744-0.144-1.368-0.144h-0.551v5.357
			H232.664z M235.382,237.015h2.011c1.304,0,2.118-0.053,2.442-0.158c0.325-0.105,0.579-0.286,0.762-0.542s0.275-0.578,0.275-0.963
			c0-0.432-0.121-0.781-0.363-1.046c-0.242-0.265-0.583-0.433-1.023-0.503c-0.221-0.029-0.882-0.043-1.983-0.043h-2.122V237.015z"/>
		<path fill="#010002" d="M246.586,244.42v-12.833h2.718v12.833H246.586z"/>
		<path fill="#010002" d="M255.356,244.42v-10.662h-3.995v-2.171h10.698v2.171h-3.985v10.662H255.356z"/>
		<path fill="#010002" d="M267.78,244.42v-5.401l-4.931-7.432h3.186l3.168,5.077l3.104-5.077h3.131l-4.949,7.449v5.383H267.78z"/>
		<path fill="#010002" d="M107.949,264.366l-1.561,1.899c-0.765-0.356-1.5-0.846-2.204-1.471c-0.545,0.467-1.124,0.812-1.735,1.033
			c-0.612,0.222-1.341,0.333-2.186,0.333c-1.678,0-2.938-0.449-3.783-1.348c-0.655-0.694-0.982-1.494-0.982-2.398
			c0-0.823,0.257-1.562,0.771-2.219c0.514-0.657,1.283-1.227,2.305-1.711c-0.459-0.519-0.805-1.014-1.038-1.484
			c-0.232-0.469-0.349-0.915-0.349-1.334c0-0.776,0.326-1.434,0.978-1.974c0.652-0.54,1.581-0.81,2.787-0.81
			c1.163,0,2.072,0.283,2.728,0.849c0.655,0.566,0.982,1.257,0.982,2.074c0,0.52-0.163,1.013-0.487,1.479
			c-0.325,0.467-0.979,0.995-1.965,1.584l1.873,2.354c0.22-0.373,0.41-0.86,0.569-1.462l2.333,0.508
			c-0.233,0.788-0.435,1.364-0.606,1.729s-0.355,0.669-0.551,0.915c0.288,0.257,0.66,0.539,1.116,0.845
			C107.4,264.064,107.735,264.266,107.949,264.366z M99.915,260.059c-0.594,0.286-1.038,0.63-1.332,1.033
			c-0.294,0.403-0.44,0.814-0.44,1.234c0,0.531,0.182,0.964,0.546,1.3c0.364,0.336,0.852,0.503,1.464,0.503
			c0.404,0,0.793-0.076,1.166-0.228c0.374-0.152,0.781-0.403,1.222-0.753L99.915,260.059z M100.925,257.389l0.698-0.508
			c0.514-0.379,0.771-0.755,0.771-1.129c0-0.315-0.124-0.583-0.372-0.805c-0.248-0.222-0.583-0.333-1.005-0.333
			c-0.41,0-0.731,0.098-0.964,0.293c-0.232,0.195-0.349,0.421-0.349,0.678c0,0.304,0.196,0.671,0.587,1.103L100.925,257.389z"/>
		<path fill="#010002" d="M124.324,261.214l2.635,0.797c-0.404,1.4-1.076,2.441-2.016,3.121c-0.939,0.68-2.132,1.02-3.577,1.02
			c-1.788,0-3.256-0.582-4.407-1.746c-1.151-1.165-1.727-2.756-1.727-4.775c0-2.136,0.579-3.795,1.735-4.977
			c1.157-1.182,2.678-1.772,4.564-1.772c1.646,0,2.984,0.464,4.013,1.392c0.612,0.549,1.071,1.336,1.377,2.363l-2.69,0.613
			c-0.159-0.665-0.491-1.19-0.997-1.575c-0.505-0.385-1.119-0.578-1.841-0.578c-0.998,0-1.808,0.341-2.429,1.024
			c-0.622,0.683-0.932,1.789-0.932,3.317c0,1.623,0.306,2.778,0.918,3.466c0.612,0.689,1.408,1.033,2.387,1.033
			c0.722,0,1.344-0.219,1.864-0.657C123.724,262.843,124.097,262.154,124.324,261.214z"/>
		<path fill="#010002" d="M129.174,259.595c0-1.307,0.205-2.404,0.615-3.292c0.306-0.653,0.724-1.24,1.253-1.759
			c0.529-0.52,1.109-0.904,1.74-1.155c0.839-0.338,1.806-0.508,2.902-0.508c1.983,0,3.57,0.586,4.761,1.759
			c1.19,1.173,1.786,2.804,1.786,4.893c0,2.072-0.591,3.693-1.772,4.863s-2.761,1.755-4.738,1.755c-2.001,0-3.593-0.582-4.775-1.746
			C129.764,263.241,129.174,261.638,129.174,259.595z M131.974,259.508c0,1.453,0.352,2.554,1.056,3.304s1.598,1.125,2.681,1.125
			c1.084,0,1.973-0.372,2.668-1.116c0.694-0.744,1.042-1.86,1.042-3.348c0-1.471-0.338-2.568-1.015-3.292s-1.575-1.085-2.695-1.085
			c-1.12,0-2.023,0.366-2.708,1.099C132.317,256.927,131.974,258.031,131.974,259.508z"/>
		<path fill="#010002" d="M144.812,265.932V253.1h2.645l5.509,8.57v-8.57h2.525v12.833h-2.728l-5.427-8.368v8.368H144.812z"/>
		<path fill="#010002" d="M158.11,261.757l2.645-0.245c0.159,0.846,0.482,1.468,0.969,1.864c0.486,0.397,1.143,0.595,1.97,0.595
			c0.875,0,1.535-0.176,1.979-0.529s0.666-0.766,0.666-1.239c0-0.303-0.094-0.562-0.28-0.774c-0.187-0.213-0.513-0.398-0.978-0.556
			c-0.318-0.105-1.043-0.292-2.176-0.56c-1.457-0.344-2.479-0.768-3.067-1.27c-0.826-0.706-1.24-1.567-1.24-2.582
			c0-0.653,0.194-1.265,0.583-1.834c0.389-0.569,0.949-1.002,1.68-1.3c0.731-0.297,1.615-0.446,2.649-0.446
			c1.69,0,2.961,0.353,3.815,1.059s1.302,1.648,1.345,2.827l-2.718,0.114c-0.116-0.659-0.366-1.133-0.749-1.422
			c-0.383-0.289-0.957-0.433-1.722-0.433c-0.79,0-1.408,0.155-1.855,0.464c-0.288,0.198-0.432,0.464-0.432,0.796
			c0,0.304,0.135,0.563,0.404,0.779c0.343,0.274,1.175,0.56,2.498,0.858c1.322,0.297,2.3,0.605,2.934,0.923
			c0.634,0.318,1.13,0.753,1.488,1.304c0.358,0.552,0.537,1.233,0.537,2.044c0,0.735-0.214,1.424-0.643,2.066
			c-0.429,0.642-1.035,1.119-1.818,1.431s-1.76,0.468-2.929,0.468c-1.702,0-3.009-0.375-3.921-1.125
			C158.832,264.286,158.287,263.193,158.11,261.757z"/>
		<path fill="#010002" d="M171.755,253.1h2.718v6.95c0,1.103,0.034,1.818,0.101,2.145c0.116,0.525,0.393,0.947,0.831,1.265
			c0.438,0.318,1.036,0.477,1.795,0.477c0.771,0,1.353-0.15,1.745-0.451c0.392-0.3,0.627-0.669,0.707-1.107
			c0.08-0.438,0.12-1.165,0.12-2.18V253.1h2.718v6.74c0,1.541-0.073,2.629-0.22,3.265c-0.147,0.636-0.418,1.173-0.812,1.61
			c-0.395,0.438-0.923,0.787-1.584,1.046c-0.661,0.26-1.524,0.39-2.589,0.39c-1.286,0-2.261-0.142-2.925-0.424
			c-0.665-0.283-1.189-0.651-1.575-1.103s-0.64-0.926-0.762-1.422c-0.178-0.735-0.267-1.821-0.267-3.256V253.1z"/>
		<path fill="#010002" d="M185.861,265.932v-12.728h2.718v10.565h6.758v2.162H185.861z"/>
		<path fill="#010002" d="M199.341,265.932v-10.662h-3.995V253.1h10.698v2.171h-3.985v10.662H199.341z"/>
		<path fill="#010002" d="M208.149,265.932V253.1h2.718v12.833H208.149z"/>
		<path fill="#010002" d="M213.916,265.932V253.1h2.645l5.509,8.57v-8.57h2.525v12.833h-2.728l-5.427-8.368v8.368H213.916z"/>
		<path fill="#010002" d="M234.165,261.214v-2.162h5.858v5.112c-0.569,0.525-1.395,0.988-2.475,1.387
			c-1.081,0.4-2.175,0.6-3.283,0.6c-1.408,0-2.636-0.281-3.683-0.845c-1.046-0.563-1.833-1.368-2.36-2.416
			c-0.526-1.047-0.79-2.187-0.79-3.418c0-1.336,0.294-2.524,0.881-3.562c0.588-1.039,1.448-1.835,2.581-2.39
			c0.863-0.426,1.938-0.639,3.223-0.639c1.671,0,2.977,0.334,3.916,1.002c0.94,0.668,1.544,1.592,1.813,2.771l-2.699,0.481
			c-0.19-0.63-0.546-1.127-1.07-1.492s-1.177-0.547-1.96-0.547c-1.188,0-2.132,0.359-2.833,1.077
			c-0.701,0.718-1.051,1.783-1.051,3.195c0,1.523,0.355,2.666,1.065,3.427c0.71,0.762,1.641,1.143,2.792,1.143
			c0.569,0,1.14-0.106,1.712-0.32c0.573-0.213,1.064-0.471,1.474-0.774v-1.628H234.165z"/>
	</g>
	<g>
		<g>
			<g>
				<path fill="#FFFFFF" stroke="#FFFFFF" stroke-width="4" stroke-miterlimit="10" d="M262.984,88.261
					c-1.137-4.059-2.158-7.249-2.158-7.249c-0.205-0.113-0.39-0.191-0.584-0.283c-0.102-0.236-0.16-0.366-0.16-0.366
					c-5.812-1.874-6.566,2.755-6.566,2.755c2.8,7.265,4.304,14.43,4.989,18.34c0.318,1.863,0.473,3.033,0.473,3.033
					c4.369,3.778,6.915-0.182,6.915-0.182c-0.003-0.138-0.01-0.276-0.014-0.414c0.081-0.164,0.125-0.275,0.125-0.275
					c0.117-1.716-0.385-4.688-1.115-7.923C264.355,93.01,263.669,90.473,262.984,88.261z"/>
				<path fill="#FFFFFF" stroke="#FFFFFF" stroke-width="4" stroke-miterlimit="10" d="M263.018,54.411
					c-5.266-7.36-11.248-2.566-11.248-2.566l-4.295,3.446c2.013,2.664,3.254,4.849,3.254,4.849l3.914-2.453
					c9.443,12.23,11.409,21.903,11.409,21.903l-2.92,1.012l2.026,5.592c9.152-1.564,8.895-7.501,8.895-7.501
					C274.489,72.849,263.018,54.411,263.018,54.411z"/>
				<path fill="#FFFFFF" stroke="#FFFFFF" stroke-width="4" stroke-miterlimit="10" d="M248.227,86.272
					c0,0-1.719-5.893-9.311-17.156l3.528-2.847l-3.48-3.853l-4.907,4.202c0,0-4.752,4.514-0.806,9.148
					c0,0,6.821,10.938,7.446,13.109c0,0,2.559,4.448,12.549,0.978l-1.791-4.739L248.227,86.272z"/>
				<path fill="#FFFFFF" stroke="#FFFFFF" stroke-width="4" stroke-miterlimit="10" d="M227.9,48.994c0,0,5.719,3.803,15.76,16.169
					c0,0,4.708,0.547,5.842-4.126c0,0-7.363-11.798-17.241-17.875C232.261,43.162,226.95,43.118,227.9,48.994z"/>
				<path fill="#FFFFFF" stroke="#FFFFFF" stroke-width="4" stroke-miterlimit="10" d="M189.127,25.281c0,0-0.111,0.042-0.277,0.12
					c-0.138-0.007-0.276-0.017-0.414-0.022c0,0-4.003,2.475-0.308,6.915c0,0,1.167,0.176,3.021,0.529
					c3.895,0.757,11.027,2.393,18.237,5.326c0,0,4.64-0.669,2.873-6.518c0,0-0.129-0.061-0.363-0.167
					c-0.089-0.195-0.163-0.382-0.273-0.589c0,0-3.169-1.08-7.203-2.291c-2.198-0.726-4.721-1.458-7.397-2.042
					C193.805,25.752,190.844,25.196,189.127,25.281z"/>
				<path fill="#FFFFFF" stroke="#FFFFFF" stroke-width="4" stroke-miterlimit="10" d="M213.14,25.671c0,0,9.63,2.144,21.678,11.814
					l-2.523,3.871c0,0,2.161,1.281,4.786,3.344l3.522-4.234c0,0,4.9-5.897-2.358-11.299c0,0-18.215-11.812-24.062-11.483
					c0,0-5.928-0.365-7.658,8.761l5.551,2.128L213.14,25.671z"/>
				<path fill="#FFFFFF" stroke="#FFFFFF" stroke-width="4" stroke-miterlimit="10" d="M223.111,53.01
					c-11.117-7.8-16.974-9.628-16.974-9.628l1.217-3.207l-4.703-1.878c-3.651,9.931,0.748,12.572,0.748,12.572
					c2.158,0.665,12.963,7.688,12.963,7.688c4.558,4.032,9.156-0.64,9.156-0.64l4.289-4.832l-3.787-3.552L223.111,53.01z"/>
				<path fill="#FFFFFF" stroke="#FFFFFF" stroke-width="4" stroke-miterlimit="10" d="M147.571,30.612
					c-0.236,0.102-0.366,0.16-0.366,0.16c-1.874,5.812,2.756,6.566,2.756,6.566c7.265-2.8,14.43-4.304,18.34-4.989
					c1.863-0.318,3.033-0.473,3.033-0.473c3.778-4.369-0.182-6.915-0.182-6.915c-0.138,0.003-0.276,0.01-0.414,0.015
					c-0.164-0.081-0.275-0.125-0.275-0.125c-1.716-0.117-4.688,0.385-7.922,1.115c-2.687,0.534-5.224,1.22-7.435,1.905
					c-4.06,1.137-7.251,2.158-7.251,2.158C147.741,30.232,147.663,30.418,147.571,30.612z"/>
				<path fill="#FFFFFF" stroke="#FFFFFF" stroke-width="4" stroke-miterlimit="10" d="M122.134,43.378
					c2.664-2.013,4.849-3.254,4.849-3.254l-2.453-3.914c12.23-9.443,21.903-11.409,21.903-11.409l1.012,2.92l5.592-2.026
					c-1.564-9.152-7.501-8.895-7.501-8.895c-5.844-0.436-24.282,11.035-24.282,11.035c-7.36,5.266-2.566,11.248-2.566,11.248
					L122.134,43.378z"/>
				<path fill="#FFFFFF" stroke="#FFFFFF" stroke-width="4" stroke-miterlimit="10" d="M151.955,39.399l1.159,3.227
					c0,0-5.893,1.719-17.156,9.311l-2.847-3.528l-3.853,3.48l4.202,4.907c0,0,4.514,4.752,9.148,0.807
					c0,0,10.938-6.821,13.109-7.446c0,0,4.448-2.559,0.978-12.549L151.955,39.399z"/>
				<path fill="#FFFFFF" stroke="#FFFFFF" stroke-width="4" stroke-miterlimit="10" d="M115.836,62.954
					c0,0,3.803-5.719,16.169-15.76c0,0,0.547-4.709-4.126-5.842c0,0-11.798,7.363-17.875,17.241
					C110.004,58.593,109.961,63.903,115.836,62.954z"/>
				<path fill="#FFFFFF" stroke="#FFFFFF" stroke-width="4" stroke-miterlimit="10" d="M98.473,78.594c0,0-0.061,0.129-0.167,0.363
					c-0.195,0.089-0.383,0.163-0.589,0.273c0,0-1.08,3.17-2.291,7.205c-0.726,2.197-1.458,4.719-2.042,7.395
					c-0.79,3.219-1.346,6.18-1.261,7.897c0,0,0.042,0.111,0.12,0.277c-0.007,0.138-0.017,0.276-0.022,0.414
					c0,0,2.475,4.003,6.915,0.308c0,0,0.176-1.166,0.528-3.021c0.757-3.895,2.393-11.028,5.326-18.237
					C104.991,81.467,104.322,76.827,98.473,78.594z"/>
				<path fill="#FFFFFF" stroke="#FFFFFF" stroke-width="4" stroke-miterlimit="10" d="M95.417,78.778l-2.903-1.065
					c0,0,2.144-9.63,11.814-21.678l3.871,2.523c0,0,1.281-2.161,3.344-4.786l-4.234-3.522c0,0-5.897-4.9-11.299,2.358
					c0,0-11.812,18.215-11.483,24.062c0,0-0.365,5.928,8.761,7.658L95.417,78.778z"/>
				<path fill="#FFFFFF" stroke="#FFFFFF" stroke-width="4" stroke-miterlimit="10" d="M119.927,61.046l-3.552,3.787l3.477,2.909
					c-7.8,11.117-9.628,16.974-9.628,16.974l-3.208-1.217l-1.878,4.703c9.931,3.651,12.572-0.748,12.572-0.748
					c0.665-2.158,7.688-12.963,7.688-12.963c4.032-4.558-0.64-9.156-0.64-9.156L119.927,61.046z"/>
				<path fill="#FFFFFF" stroke="#FFFFFF" stroke-width="4" stroke-miterlimit="10" d="M189.41,37.997c0,0-5.979-1.391-19.518-0.298
					l-0.751-4.471l-5.065,1.144l1.256,6.337c0,0,1.604,6.355,7.577,5.188c0,0,12.877-0.581,15.076-0.061
					c0,0,5.132-0.049,7.005-10.458l-5.008-0.763L189.41,37.997z"/>
				<path fill="#FFFFFF" stroke="#FFFFFF" stroke-width="4" stroke-miterlimit="10" d="M162.377,23.363
					c3.311-0.431,5.824-0.428,5.824-0.428l-0.195-4.615c15.3-2.155,24.679,0.922,24.679,0.922l-0.565,3.038l5.861,1.007
					c3.169-8.727-2.117-11.441-2.117-11.441c-4.863-3.271-26.561-2.425-26.561-2.425c-9.001,0.934-7.795,8.505-7.795,8.505
					L162.377,23.363z"/>
			</g>
			<g>
				<polygon fill="#FFFFFF" points="87.844,76.295 101.809,51.986 122.756,68.795 112.412,87.415 				"/>
				<polygon fill="#FFFFFF" points="120.029,32.813 144.708,19.513 153.651,44.838 135.047,55.211 				"/>
				<polygon fill="#FFFFFF" points="165.953,15.989 193.972,15.061 190.711,41.72 169.435,42.731 				"/>
				<polygon fill="#FFFFFF" points="216.228,20.497 239.495,36.136 221.255,55.85 203.409,44.223 				"/>
				<polygon fill="#FFFFFF" points="255.751,54.136 272.034,76.957 248.027,88.999 235.408,71.839 				"/>
			</g>
			<g>
				<path fill="#257798" d="M265.894,104.309c0,0-2.546,3.96-6.915,0.182c0,0-1.304-10.582-5.462-21.374c0,0,0.754-4.63,6.566-2.756
					C260.082,80.362,265.65,92.687,265.894,104.309z"/>
				<path fill="#257798" d="M266.004,103.621c0,0-1.801,4.869-7.026,0.871c0,0-1.645-12.467-5.299-20.946
					c0,0,1.206-5.827,7.146-2.534C260.826,81.012,266.366,98.314,266.004,103.621z"/>
				<path fill="#257798" d="M265.158,86.194l-2.026-5.592l2.92-1.012c0,0-1.966-9.673-11.409-21.903l-3.914,2.453
					c0,0-1.241-2.185-3.254-4.849l4.295-3.446c0,0,5.982-4.794,11.248,2.566c0,0,11.471,18.438,11.035,24.282
					C274.053,78.693,274.31,84.629,265.158,86.194z"/>
				<path fill="#257798" d="M253.245,89.852l-1.791-4.739l-3.227,1.159c0,0-1.719-5.893-9.311-17.156l3.528-2.847l-3.48-3.853
					l-4.907,4.202c0,0-4.752,4.514-0.806,9.148c0,0,6.821,10.938,7.446,13.109C240.696,88.874,243.256,93.323,253.245,89.852z"/>
				<path fill="#257798" d="M243.659,65.163c0,0,4.709,0.547,5.842-4.126c0,0-7.363-11.798-17.241-17.875
					c0,0-5.311-0.043-4.361,5.832C227.9,48.994,233.619,52.796,243.659,65.163z"/>
				<path fill="#257798" d="M188.436,25.379c0,0-4.003,2.475-0.308,6.915c0,0,10.55,1.498,21.258,5.855c0,0,4.64-0.669,2.873-6.518
					C212.259,31.631,200.046,25.836,188.436,25.379z"/>
				<path fill="#257798" d="M189.127,25.281c0,0-4.899,1.713-0.999,7.013c0,0,12.428,1.873,20.833,5.684c0,0,5.844-1.1,2.663-7.103
					C211.624,30.875,194.436,25.016,189.127,25.281z"/>
				<path fill="#257798" d="M206.525,26.446l5.551,2.128l1.065-2.903c0,0,9.63,2.144,21.678,11.814l-2.523,3.871
					c0,0,2.161,1.281,4.786,3.344l3.522-4.234c0,0,4.9-5.897-2.358-11.299c0,0-18.215-11.812-24.062-11.483
					C214.183,17.684,208.255,17.319,206.525,26.446z"/>
				<path fill="#257798" d="M202.652,38.297l4.703,1.878l-1.217,3.207c0,0,5.857,1.827,16.974,9.628l2.909-3.477l3.787,3.552
					l-4.289,4.832c0,0-4.597,4.671-9.156,0.64c0,0-10.805-7.023-12.963-7.688C203.4,50.869,199.001,48.227,202.652,38.297z"/>
			</g>
			<g>
				<path fill="#257798" d="M171.152,24.96c0,0,3.96,2.546,0.182,6.915c0,0-10.582,1.304-21.374,5.462c0,0-4.63-0.754-2.756-6.566
					C147.205,30.772,159.529,25.204,171.152,24.96z"/>
				<path fill="#257798" d="M170.463,24.849c0,0,4.869,1.801,0.871,7.026c0,0-12.467,1.645-20.946,5.299
					c0,0-5.827-1.206-2.534-7.146C147.854,30.028,165.157,24.488,170.463,24.849z"/>
				<path fill="#257798" d="M153.036,25.695l-5.592,2.026l-1.012-2.92c0,0-9.673,1.966-21.903,11.409l2.453,3.914
					c0,0-2.185,1.241-4.849,3.254l-3.446-4.295c0,0-4.794-5.982,2.566-11.248c0,0,18.438-11.471,24.282-11.035
					C145.535,16.8,151.472,16.543,153.036,25.695z"/>
				<path fill="#257798" d="M156.695,37.608l-4.739,1.791l1.159,3.227c0,0-5.893,1.719-17.156,9.311l-2.847-3.528l-3.853,3.48
					l4.202,4.907c0,0,4.514,4.752,9.148,0.806c0,0,10.938-6.821,13.109-7.446C155.717,50.157,160.165,47.598,156.695,37.608z"/>
				<path fill="#257798" d="M132.005,47.194c0,0,0.547-4.709-4.126-5.842c0,0-11.798,7.363-17.875,17.241
					c0,0-0.043,5.311,5.832,4.361C115.836,62.954,119.639,57.235,132.005,47.194z"/>
				<path fill="#257798" d="M92.222,102.417c0,0,2.475,4.003,6.915,0.308c0,0,1.498-10.55,5.855-21.258c0,0-0.669-4.64-6.518-2.873
					C98.473,78.594,92.678,90.808,92.222,102.417z"/>
				<path fill="#257798" d="M92.124,101.727c0,0,1.713,4.899,7.013,0.999c0,0,1.873-12.428,5.684-20.833c0,0-1.1-5.844-7.103-2.663
					C97.717,79.23,91.859,96.418,92.124,101.727z"/>
				<path fill="#257798" d="M93.288,84.328l2.128-5.551l-2.903-1.065c0,0,2.144-9.63,11.814-21.678l3.871,2.523
					c0,0,1.281-2.161,3.344-4.786l-4.234-3.522c0,0-5.897-4.9-11.299,2.358c0,0-11.812,18.215-11.483,24.062
					C84.527,76.671,84.162,82.598,93.288,84.328z"/>
				<path fill="#257798" d="M105.139,88.202l1.878-4.703l3.207,1.217c0,0,1.827-5.857,9.628-16.974l-3.477-2.909l3.552-3.787
					l4.832,4.289c0,0,4.671,4.597,0.64,9.156c0,0-7.023,10.805-7.688,12.963C117.711,87.454,115.07,91.852,105.139,88.202z"/>
			</g>
			<path fill="#257798" d="M194.99,35.379l-5.008-0.763l-0.572,3.381c0,0-5.979-1.391-19.518-0.298l-0.751-4.471l-5.065,1.144
				l1.256,6.337c0,0,1.604,6.355,7.577,5.188c0,0,12.877-0.581,15.076-0.061C187.985,45.837,193.117,45.787,194.99,35.379z"/>
			<path fill="#257798" d="M197.981,23.287l-5.861-1.006l0.565-3.038c0,0-9.379-3.077-24.679-0.922l0.195,4.615
				c0,0-2.513-0.003-5.824,0.428l-0.869-5.437c0,0-1.206-7.57,7.795-8.505c0,0,21.699-0.846,26.561,2.425
				C195.864,11.846,201.15,14.56,197.981,23.287z"/>
		</g>
		<g>
			<polygon fill="#FFFFFF" points="221.281,90.292 185.944,118.736 227.332,89.798 			"/>
			<polygon fill="#FFFFFF" points="213.294,92.024 188.154,114.735 184.449,117.946 218.135,91.034 			"/>
			<polygon fill="#FFFFFF" points="204,95.095 188.091,112.76 183.378,117.682 210.653,92.829 			"/>
			<path fill="#FFFFFF" d="M342.073,172.19c-0.835-3.561-3.848-3.768-3.848-3.768l-8.458-0.073l0.022-2.272l8.273,0.113l0.047-8.074
				c-1.085-5.049-10.153-8.044-10.153-8.044l-0.553-10.159c-7.192-5.601-21.668-7.033-21.668-7.033l-0.281-0.047l-1.54-11.076
				l0.118-1.043c0,0,0.653-1.239-0.619-3.128c0.384,0.144,0.535,0.229,0.535,0.229c-0.67-0.731-1.421-1.408-2.214-2.039
				c-0.578-0.489-1.281-1.001-2.147-1.53c-4.876-3.128-10.344-4.631-10.344-4.631l-0.516-3.846L240.201,92.26l-3.712-0.336
				l-0.042,1.196l-3.301-1.05l-1.003,2.261l-2.247-3.287L185.16,121.16c-0.81-1.109-4.338-1.946-8.607-1.946
				c-4.422,0-8.056,0.898-8.69,2.066l-44.089-29.681l-4.311,6.303l-2.283-5.423l-3.712,0.336l-48.949,12.816l-0.091,4.539
				c0,0-1.747,0.483-4.14,1.461c-4.225,1.657-6.782,3.265-8.316,4.674c-0.807,0.638-1.57,1.324-2.25,2.066
				c0,0,0.203-0.114,0.739-0.303c-1.147,1.849-0.54,3.056-0.54,3.056l-1.705,12.265l-0.281,0.047c0,0-14.477,1.432-21.668,7.033
				l-0.553,10.159c0,0-9.068,2.995-10.153,8.044l0.047,8.074l8.273-0.113l0.022,2.273l-8.458,0.073c0,0-3.014,0.207-3.849,3.768
				h-0.268v9.157h0.236l0.048,5.863l5.32-0.002c0.968,5.996,6.168,10.581,12.455,10.581c6.288,0,11.488-4.585,12.456-10.582
				l31.532,0.43l-7.344,21.289c-0.189,0.659-0.307,1.492-0.354,2.502c-0.047,1.012-0.023,2.01,0.071,2.998
				c0.094,0.986,0.248,1.892,0.46,2.715c0.212,0.823,0.505,1.399,0.884,1.727c1.084,0.94,2.38,1.798,3.889,2.573
				c1.509,0.776,2.995,1.164,4.457,1.164h17.785c-0.008,0.04-0.01,0.076-0.018,0.116c2.349-0.923,4.972-1.083,7.511-0.116h10.135
				c1.637-1.072,3.549-1.755,5.647-1.845c4.183-0.179,9.214,2.041,13.158,1.003c2.941-0.774,5.715-0.354,8.028,0.842h55.237
				c1.084,0,2.204-0.318,3.36-0.952c1.155-0.635,2.239-1.432,3.254-2.397c1.013-0.963,1.898-2.033,2.652-3.209
				c0.755-1.174,1.273-2.326,1.556-3.455l0.086-0.276h6.837c-0.258,1.066-0.175,2.167,0.292,3.309
				c0.519,1.269,1.108,2.422,1.769,3.455c0.328,0.47,0.753,0.916,1.273,1.34c0.328,0.268,0.694,0.504,1.07,0.732
				c10.127-1.005,20.293,1.545,30.282-0.584c3.514-0.749,6.976,0.15,9.64,2.037h16.794l3.054-10.289h0.614v-25.167l36.373-0.496
				c0.967,5.996,6.167,10.582,12.456,10.582c6.288,0,11.487-4.585,12.455-10.581l5.32,0.002l0.048-5.864h0.236v-9.157H342.073z"/>
			<polygon fill="#FFFFFF" points="126.336,90.353 167.724,119.291 132.387,90.847 			"/>
			<polygon fill="#FFFFFF" points="165.514,115.29 140.374,92.579 135.534,91.589 169.22,118.501 			"/>
			<polygon fill="#FFFFFF" points="165.578,113.315 149.668,95.65 143.015,93.384 170.29,118.237 			"/>
			<path fill="#FFFFFF" d="M159.199,79.492c10.479-6.964,17.721-6.03,17.721-6.03l-0.029,0.016c0,0,7.242-0.934,17.721,6.03
				c0,0,2.811,0.255-1.704-7.304l-0.767-12.569c0,0-0.256-2.718-7.071-3.822c0,0-4.425-0.101-5.873-2.564
				c0,0-0.479-0.971-2.268-0.876l-0.046-0.016c-1.789-0.096-2.268,0.876-2.268,0.876c-1.448,2.463-5.873,2.564-5.873,2.564
				c-6.816,1.104-7.071,3.822-7.071,3.822l-0.767,12.569C156.387,79.746,159.199,79.492,159.199,79.492z"/>
			<path fill="#FFFFFF" d="M163.219,80.299l-2.043,0.832c0,0-1.233,17.197,15.558,18.47l0.188,0.009
				c16.79-1.273,15.558-18.47,15.558-18.47l-1.768-0.72c-0.092-0.067-0.183-0.133-0.275-0.198c-0.002-0.017-0.006-0.06-0.006-0.06
				l0.002,0.057c-13.794-9.822-24.563-2.094-26.985-0.058c0-0.001,0.001-0.008,0.001-0.008L163.219,80.299z"/>
			<path fill="#FFFFFF" d="M176.835,116.799c0.651,0.048,3.407,0.128,5.132,1.072l10.041-12.076c0,0-2.344-3.006-15.176-4.679
				v-0.038c-0.048,0.006-0.089,0.013-0.137,0.019c-0.048-0.006-0.089-0.013-0.137-0.019v0.038
				c-12.832,1.673-15.176,4.679-15.176,4.679l10.041,12.076C173.148,116.927,176.184,116.847,176.835,116.799z"/>
		</g>
		<g>
			<polygon fill="#257798" points="186.499,118.675 227.887,89.736 221.836,90.231 			"/>
			<polygon fill="#257798" points="218.689,90.973 185.003,117.885 188.709,114.674 213.849,91.963 			"/>
			<polygon fill="#257798" points="183.933,117.621 211.208,92.768 204.555,95.034 188.645,112.699 			"/>
			<path fill="#257798" d="M181.66,123.828l48.79-32.845l4.31,6.304l-1.798,69.826l0.26,0.057
				c-2.046,8.758,8.49,12.368,8.405,20.891l-23.093-9.359l-37.958-16.303C181.217,147.329,181.66,123.828,181.66,123.828z"/>
			<g>
				<path fill="#257798" d="M254.408,118.118l0.378,14.47l-1.025-1.215c0,0-3.279-0.376-6.393,0.111l-0.423-9.821
					C246.944,121.663,249.052,118.067,254.408,118.118z"/>
				<path fill="#257798" d="M256.609,140.528l0.058,11.884c0,0-3.641,1.343-4.512,2.023l-0.244-10.508
					C251.911,143.928,254.003,142.053,256.609,140.528z"/>
				<path fill="#257798" d="M229.489,182.97l1.987-51.287l4.133,1.449l1.434-41.269l3.712,0.336l48.524,13.508l0.516,3.846
					c0,0,9.604,2.636,14.706,8.2c0,0-6.701-3.854-49.714-4.44l-10.985,4.064l-1.18,45.5l4.655-1.557
					c-1.468,6.664-1.321,18.933-1.321,18.933l3.369,0.032c-0.036-10.395,0.6-14.008,0.6-14.008
					c1.959-10.289,7.179-9.428,7.179-9.428c6.737,0.181,9.196,8.3,9.196,8.3l16.669-3.766l0.139-5.392l-9.996-0.097l-0.211,5.328
					l-1.672,0.005l-0.01-6.445c0,0-2.954-7.371-10.529-3.773c0,0,4.799-6.597,25.928,2.697l-0.011-16.957
					c0,0-12.017-7.273-29.932-4.474l-0.566-15.224c0,0,42.17,0.814,48.192,3.455l1.705,12.265l0.281,0.047
					c0,0,14.477,1.432,21.668,7.033l0.553,10.159c0,0,9.068,2.995,10.153,8.044l-0.047,8.074l-8.273-0.113l-0.022,2.272l8.458,0.073
					c0,0,3.289,0.215,3.951,4.242l-0.119,14.546l-5.32-0.002c-0.968,5.996-6.168,10.581-12.455,10.581
					c-6.288,0-11.488-4.585-12.456-10.582l-40.653,0.554c-2.395,6.223-6.343,10.302-10.822,10.302
					c-4.409,0-8.305-3.951-10.71-10.008l-8.226,0.112L229.489,182.97z"/>
				
					<rect x="329.772" y="159.113" transform="matrix(-1 -0.0096 0.0096 -1 665.4144 326.313)" fill="#FFFFFF" width="7.443" height="4.881"/>
				<rect x="266.273" y="172.129" fill="#FFFFFF" width="76.623" height="9.157"/>
				<rect x="266.412" y="161.237" fill="#FFFFFF" width="61.103" height="7.215"/>
				<ellipse fill="#257798" cx="257.818" cy="173.672" rx="9.5" ry="17.361"/>
				<polygon fill="#FFFFFF" points="326.55,140.186 327.46,159.036 288.859,158.888 289.034,137.262 				"/>
			</g>
			<rect x="271.221" y="154.783" fill="#257798" width="13.189" height="11.27"/>
			<rect x="272.312" y="157.612" fill="#FFFFFF" width="10.973" height="7.019"/>
			<polygon fill="#FFFFFF" points="181.612,126.207 226.678,98.932 230.098,102.341 227.08,176.546 180.606,159.9 			"/>
		</g>
		<g>
			<polygon fill="#257798" points="168.279,119.23 126.891,90.291 132.942,90.786 			"/>
			<polygon fill="#257798" points="136.088,91.528 169.775,118.44 166.069,115.229 140.929,92.518 			"/>
			<polygon fill="#257798" points="170.845,118.176 143.57,93.323 150.223,95.589 166.132,113.254 			"/>
			<path fill="#257798" d="M173.118,124.383l-48.79-32.845l-4.31,6.304l1.798,69.826l-0.26,0.057
				c2.046,8.758-8.49,12.368-8.405,20.891l23.093-9.359l37.958-16.303C173.56,147.884,173.118,124.383,173.118,124.383z"/>
			<g>
				<path fill="#257798" d="M100.37,118.673l-0.378,14.47l1.025-1.215c0,0,3.279-0.376,6.393,0.111l0.423-9.821
					C107.834,122.218,105.725,118.622,100.37,118.673z"/>
				<path fill="#257798" d="M98.169,141.083l-0.058,11.884c0,0,3.641,1.343,4.512,2.023l0.244-10.508
					C102.866,144.483,100.775,142.608,98.169,141.083z"/>
				<path fill="#257798" d="M125.289,183.525l-1.987-51.287l-4.133,1.449l-1.434-41.269l-3.712,0.336l-48.949,12.816l-0.091,4.538
					c0,0-9.604,2.636-14.706,8.2c0,0,6.701-3.854,49.714-4.44l10.985,4.064l1.18,45.5l-4.655-1.557
					c1.468,6.664,1.321,18.933,1.321,18.933l-3.369,0.032c0.036-10.395-0.6-14.008-0.6-14.008
					c-1.959-10.289-7.179-9.428-7.179-9.428c-6.737,0.181-9.196,8.3-9.196,8.3l-16.669-3.766l-0.139-5.392l9.996-0.097l0.211,5.328
					l1.672,0.005l0.01-6.445c0,0,2.954-7.371,10.529-3.773c0,0-4.799-6.597-25.928,2.697l0.011-16.957
					c0,0,12.017-7.273,29.932-4.474l0.566-15.224c0,0-42.17,0.814-48.192,3.455l-1.705,12.265l-0.281,0.047
					c0,0-14.477,1.432-21.668,7.033l-0.553,10.159c0,0-9.068,2.995-10.153,8.044l0.047,8.074l8.273-0.113l0.022,2.272l-8.458,0.073
					c0,0-3.289,0.215-3.951,4.242l0.119,14.546l5.32-0.002c0.968,5.996,6.168,10.581,12.455,10.581
					c6.288,0,11.488-4.585,12.456-10.582l40.653,0.554c2.395,6.223,6.343,10.302,10.822,10.302c4.409,0,8.305-3.951,10.71-10.008
					l8.226,0.112L125.289,183.525z"/>
				
					<rect x="17.563" y="159.668" transform="matrix(1 -0.0096 0.0096 1 -1.5606 0.2126)" fill="#FFFFFF" width="7.443" height="4.881"/>
				<rect x="11.882" y="172.684" fill="#FFFFFF" width="76.623" height="9.157"/>
				<rect x="27.262" y="161.792" fill="#FFFFFF" width="61.103" height="7.215"/>
				<ellipse fill="#257798" cx="96.96" cy="174.227" rx="9.5" ry="17.361"/>
				<polygon fill="#FFFFFF" points="28.228,140.741 27.318,159.591 65.918,159.443 65.744,137.817 				"/>
			</g>
			<rect x="70.367" y="155.338" fill="#257798" width="13.189" height="11.27"/>
			<rect x="71.493" y="158.167" fill="#FFFFFF" width="10.973" height="7.019"/>
			<polygon fill="#FFFFFF" points="173.166,126.762 128.1,99.487 124.68,102.896 127.698,177.101 174.172,160.455 			"/>
		</g>
		<polygon fill="#257798" points="276.008,212.809 78.856,212.809 78.856,182.867 116.603,182.867 177.077,161.38 238.999,182.867 
			276.008,182.867 		"/>
		<g>
			<path fill="#257798" d="M185.89,121.476c-0.201-1.291-4.04-2.324-8.783-2.324s-8.582,1.032-8.783,2.324h-0.038v43.737h0.019
				c0.102,1.316,3.995,2.375,8.802,2.375s8.7-1.059,8.802-2.375h0.019v-43.737H185.89z"/>
			<path fill="#FFFFFF" d="M168.26,161.754c-0.021,0.068-0.075,0.134-0.075,0.204c0,0.09,0.062,0.175,0.097,0.262
				c-0.023,0.065-0.072,0.128-0.072,0.195c0,1.34,3.984,2.427,8.899,2.427c4.915,0,8.899-1.087,8.899-2.427
				c0-0.092-0.048-0.181-0.093-0.27c0.018-0.063,0.069-0.122,0.069-0.186c0-0.077-0.034-0.152-0.072-0.227
				c0.027-0.077,0.085-0.151,0.085-0.23c0-0.11-0.067-0.215-0.119-0.321c-0.386,1.243-4.165,2.223-8.824,2.223
				c-4.511,0-8.199-0.919-8.781-2.106c-0.021,0.068-0.075,0.134-0.075,0.204c0,0.11,0.067,0.214,0.118,0.32
				C168.302,161.798,168.271,161.777,168.26,161.754z"/>
		</g>
		<g>
			<g>
				<line fill="#37559C" x1="177.046" y1="93.715" x2="177.597" y2="93.73"/>
				<path fill="#37559C" d="M161.566,78.166"/>
				<path fill="#257798" d="M177.437,52.296c-1.789-0.096-2.268,0.876-2.268,0.876c-1.448,2.463-5.873,2.564-5.873,2.564
					c-6.816,1.104-7.071,3.822-7.071,3.822l-0.767,12.569c-4.515,7.559-1.704,7.304-1.704,7.304
					c10.479-6.964,17.721-6.03,17.721-6.03l-0.029,0.016c0,0,7.242-0.934,17.721,6.03c0,0,2.811,0.255-1.704-7.304l-0.767-12.569
					c0,0-0.256-2.718-7.071-3.822c0,0-4.425-0.101-5.873-2.564c0,0-0.479-0.971-2.268-0.876"/>
				<path fill="#FFFFFF" d="M177.497,67.392c10.287,0.828,13.163,3.567,13.163,3.567c4.217,6.242,1.981,4.586,1.981,4.586
					s-5.238-4.077-15.142-4.395c-9.904,0.318-15.08,4.395-15.08,4.395s-2.236,1.656,1.981-4.586c0,0,2.875-2.739,13.163-3.567"/>
				<path fill="#257798" d="M193.034,81.079l-1.768-0.72c-0.092-0.067-0.184-0.133-0.275-0.198c-0.002-0.017-0.006-0.06-0.006-0.06
					l0.002,0.057c-13.794-9.822-24.563-2.094-26.985-0.058c0-0.001,0.001-0.008,0.001-0.008l-0.23,0.146l-2.043,0.832
					c0,0-1.233,17.197,15.558,18.47l0.188,0.009C194.267,98.276,193.034,81.079,193.034,81.079z"/>
			</g>
		</g>
		<polyline fill="#257798" points="186.231,162.07 186.469,162.004 208.02,154.604 200.295,144.69 185.591,161.892 		"/>
		<path fill="#257798" d="M192.563,105.735c0,0-2.344-3.006-15.176-4.679v-0.038c-0.048,0.006-0.089,0.013-0.137,0.019
			c-0.048-0.006-0.089-0.013-0.137-0.019v0.038c-12.832,1.673-15.176,4.679-15.176,4.679l10.041,12.076
			c1.725-0.944,4.761-1.025,5.412-1.072c0.651,0.048,3.407,0.128,5.132,1.072L192.563,105.735z"/>
		<polyline fill="#257798" points="168.26,161.754 168.149,161.534 156.701,141.885 148.437,151.357 168.209,162.415 		"/>
		<path fill="#FFFFFF" d="M208.912,166.604c0,0.938-0.049,1.865-0.138,2.78c2.752,0.204,5.095,1.003,7.033,2.23
			c0.214-1.641,0.336-3.311,0.336-5.01c0-21.293-17.316-38.554-38.676-38.554s-38.676,17.261-38.676,38.554
			c0,1.85,0.148,3.663,0.404,5.442c1.961-1.139,4.323-1.841,7.067-1.974c-0.138-1.14-0.241-2.291-0.241-3.468
			c0-17.312,14.078-31.346,31.445-31.346S208.912,149.293,208.912,166.604z"/>
		<path fill="#257798" d="M168.2,129.183c0,0-25.478,10.383-28.114,47.868l-9.313-0.176
			C130.773,176.876,130.422,139.566,168.2,129.183z"/>
		<path fill="#257798" d="M186.016,128.767c0,0,25.998,10.332,27.739,46.411l8.963-0.169
			C222.719,175.009,225.268,140.793,186.016,128.767z"/>
		<g>
			<path fill="#257798" stroke="#257798" stroke-width="7" stroke-miterlimit="10" d="M78.893,173.742h22.068l-12.096,37.652h39.539
				l-2.687,11.704H75.993c-1.462,0-2.948-0.387-4.457-1.164c-1.509-0.775-2.805-1.633-3.889-2.573
				c-0.379-0.329-0.673-0.904-0.884-1.727s-0.366-1.729-0.46-2.715c-0.094-0.987-0.118-1.985-0.071-2.998
				c0.047-1.01,0.165-1.844,0.354-2.502L78.893,173.742z"/>
			<path fill="#257798" stroke="#257798" stroke-width="7" stroke-miterlimit="10" d="M204.297,213.086
				c-0.283,1.129-0.801,2.28-1.556,3.455c-0.754,1.176-1.639,2.246-2.652,3.209c-1.014,0.964-2.099,1.762-3.254,2.397
				c-1.155,0.635-2.275,0.952-3.36,0.952h-61.889l3.042-10.012h44.064c1.132,0,2.168-0.317,3.113-0.951
				c0.942-0.635,1.744-1.399,2.404-2.292c0.33-0.422,0.647-1.022,0.955-1.797c0.306-0.776,0.576-1.563,0.813-2.363
				c0.235-0.891,0.47-1.856,0.706-2.891h-36.214c-1.651,0-3.266-0.163-4.845-0.493c-1.581-0.329-2.912-0.846-3.996-1.551
				c-1.085-0.705-1.816-1.598-2.192-2.68c-0.379-1.081-0.166-2.373,0.637-3.878l3.537-11.775c0.424-1.645,1.142-3.019,2.156-4.124
				c1.014-1.105,2.168-1.998,3.467-2.68c1.296-0.681,2.687-1.164,4.173-1.445c1.485-0.282,2.911-0.423,4.279-0.423h58.423
				l-3.183,10.576l-39.044,0.071c-2.263-0.094-3.996,0.118-5.198,0.635c-1.202,0.518-2.087,1.457-2.652,2.82l-1.556,5.076h36.072
				c1.178,0,2.31,0.106,3.396,0.318c1.084,0.211,2.016,0.588,2.793,1.128c0.779,0.541,1.344,1.234,1.698,2.08
				c0.354,0.847,0.365,1.904,0.035,3.173L204.297,213.086z"/>
			<path fill="#257798" stroke="#257798" stroke-width="7" stroke-miterlimit="10" d="M224.03,173.742h62.385l-3.748,12.34h-39.963
				l-6.931,22.985c-0.095,0.377-0.012,0.835,0.247,1.375c0.259,0.541,0.578,0.811,0.955,0.811c0.236,0,0.99,0,2.263,0
				c1.273,0,2.864-0.011,4.774-0.035c1.911-0.024,4.043-0.047,6.402-0.071c2.357-0.023,4.739-0.036,7.144-0.036
				c2.404,0,4.739-0.011,7.002-0.035c2.263-0.023,4.255-0.035,5.977-0.035c1.721,0,3.077,0.012,4.067,0.035
				c0.99,0.024,1.414,0.06,1.273,0.106l-3.537,11.916h-52.27c-0.567,0-1.179-0.094-1.84-0.282c-0.661-0.187-1.308-0.446-1.945-0.776
				c-0.637-0.327-1.214-0.704-1.733-1.128c-0.52-0.423-0.945-0.87-1.273-1.34c-0.661-1.033-1.25-2.186-1.769-3.455
				s-0.588-2.491-0.212-3.667L224.03,173.742z"/>
		</g>
		<g>
			<g>
				<path fill="#FFFFFF" d="M78.602,173.742h22.068l-12.096,37.652h39.539l-2.687,11.704H75.702c-1.462,0-2.948-0.387-4.457-1.164
					c-1.509-0.775-2.805-1.633-3.889-2.573c-0.379-0.329-0.673-0.904-0.884-1.727s-0.366-1.729-0.46-2.715
					c-0.094-0.987-0.118-1.985-0.071-2.998c0.047-1.01,0.165-1.844,0.354-2.502L78.602,173.742z"/>
				<path fill="#FFFFFF" d="M204.006,213.086c-0.283,1.129-0.801,2.28-1.556,3.455c-0.754,1.176-1.639,2.246-2.652,3.209
					c-1.014,0.964-2.099,1.762-3.254,2.397s-2.275,0.952-3.36,0.952h-61.889l3.042-10.012h44.064c1.132,0,2.168-0.317,3.113-0.951
					c0.942-0.635,1.744-1.399,2.404-2.292c0.33-0.422,0.647-1.022,0.955-1.797c0.306-0.776,0.576-1.563,0.813-2.363
					c0.235-0.891,0.47-1.856,0.706-2.891H150.18c-1.651,0-3.266-0.163-4.845-0.493c-1.581-0.329-2.912-0.846-3.996-1.551
					c-1.085-0.705-1.816-1.598-2.192-2.68c-0.379-1.081-0.166-2.373,0.637-3.878l3.537-11.775c0.424-1.645,1.142-3.019,2.156-4.124
					c1.014-1.105,2.168-1.998,3.467-2.68c1.296-0.681,2.687-1.164,4.173-1.445c1.485-0.282,2.911-0.423,4.279-0.423h58.423
					l-3.183,10.576l-39.044,0.071c-2.263-0.094-3.996,0.118-5.198,0.635c-1.202,0.518-2.087,1.457-2.652,2.82l-1.556,5.076h36.072
					c1.178,0,2.31,0.106,3.396,0.318c1.084,0.211,2.016,0.588,2.793,1.128c0.779,0.541,1.344,1.234,1.698,2.08
					c0.354,0.847,0.365,1.904,0.035,3.173L204.006,213.086z"/>
				<path fill="#FFFFFF" d="M223.739,173.742h62.385l-3.748,12.34h-39.963l-6.931,22.985c-0.095,0.377-0.012,0.835,0.247,1.375
					c0.259,0.541,0.578,0.811,0.955,0.811c0.236,0,0.99,0,2.263,0c1.273,0,2.864-0.011,4.774-0.035
					c1.911-0.024,4.043-0.047,6.402-0.071c2.357-0.023,4.739-0.036,7.144-0.036c2.404,0,4.739-0.011,7.002-0.035
					c2.263-0.023,4.255-0.035,5.977-0.035c1.721,0,3.077,0.012,4.067,0.035c0.99,0.024,1.414,0.06,1.273,0.106l-3.537,11.916h-52.27
					c-0.567,0-1.179-0.094-1.84-0.282c-0.661-0.187-1.308-0.446-1.945-0.776c-0.637-0.327-1.214-0.704-1.733-1.128
					c-0.52-0.423-0.945-0.87-1.273-1.34c-0.661-1.033-1.25-2.186-1.769-3.455c-0.519-1.269-0.588-2.491-0.212-3.667L223.739,173.742
					z"/>
			</g>
		</g>
		<path fill="#FFFFFF" d="M168.455,165.542c-0.021,0.068-0.075,0.134-0.075,0.204c0,0.09,0.062,0.175,0.097,0.262
			c-0.023,0.065-0.072,0.128-0.072,0.195c0,1.34,3.984,2.427,8.899,2.427c4.915,0,8.899-1.087,8.899-2.427
			c0-0.092-0.048-0.181-0.093-0.27c0.018-0.063,0.069-0.122,0.069-0.186c0-0.077-0.034-0.152-0.072-0.227
			c0.027-0.077,0.085-0.151,0.085-0.23c0-0.11-0.067-0.215-0.119-0.321c-0.386,1.243-4.165,2.223-8.824,2.223
			c-4.511,0-8.199-0.919-8.781-2.106c-0.021,0.068-0.075,0.134-0.075,0.204c0,0.11,0.067,0.214,0.118,0.32
			C168.497,165.587,168.466,165.565,168.455,165.542z"/>
	</g>
	<polygon fill="#FFFFFF" points="64.351,105.631 114.771,92.938 77.163,96.095 	"/>
	<polygon fill="#FFFFFF" points="286.542,104.529 236.121,91.836 273.73,94.993 	"/>
</g>
</svg>
